<svg width="60" height="61" viewBox="0 0 60 61" fill="none" xmlns="http://www.w3.org/2000/svg">
<g clip-path="url(#clip0_158_10)">
<g clip-path="url(#clip1_158_10)">
<g clip-path="url(#clip2_158_10)">
<mask id="mask0_158_10" style="mask-type:luminance" maskUnits="userSpaceOnUse" x="0" y="0" width="60" height="61">
<path d="M60 0.5H0V60.5H60V0.5Z" fill="white"/>
</mask>
<g mask="url(#mask0_158_10)">
<path d="M30 1.4375C13.9744 1.4375 0.9375 14.4744 0.9375 30.5C0.9375 46.5256 13.9744 59.5625 30 59.5625C46.0256 59.5625 59.0625 46.5256 59.0625 30.5C59.0625 14.4744 46.0256 1.4375 30 1.4375ZM30 57.6875C15.0094 57.6875 2.8125 45.4906 2.8125 30.5C2.8125 15.5094 15.0094 3.3125 30 3.3125C44.9906 3.3125 57.1875 15.5094 57.1875 30.5C57.1875 45.4906 44.9906 57.6875 30 57.6875Z" fill="#B4B7C9"/>
<path d="M30 7.0625C17.0766 7.0625 6.5625 17.5766 6.5625 30.5C6.5625 43.4234 17.0766 53.9375 30 53.9375C42.9234 53.9375 53.4375 43.4234 53.4375 30.5C53.4375 17.5766 42.9234 7.0625 30 7.0625ZM30 52.0625C18.1097 52.0625 8.4375 42.3903 8.4375 30.5C8.4375 18.6097 18.1097 8.9375 30 8.9375C41.8903 8.9375 51.5625 18.6097 51.5625 30.5C51.5625 42.3903 41.8903 52.0625 30 52.0625Z" fill="#B4B7C9"/>
<path d="M43.125 16.4375H16.875C16.3566 16.4375 15.9375 16.8566 15.9375 17.375V43.625C15.9375 44.1434 16.3566 44.5625 16.875 44.5625H43.125C43.6434 44.5625 44.0625 44.1434 44.0625 43.625V17.375C44.0625 16.8566 43.6434 16.4375 43.125 16.4375ZM38.4375 37.6119V32.375H36.5625V37.0625H31.875V38.9375H37.1119L40.8619 42.6875H19.1381L22.8881 38.9375H28.125V37.0625H23.4375V32.375H21.5625V37.6119L17.8125 41.3619V19.6381L21.5625 23.3881V28.625H23.4375V23.9375H28.125V22.0625H22.8881L19.1381 18.3125H40.8619L37.1119 22.0625H31.875V23.9375H36.5625V28.625H38.4375V23.3881L42.1875 19.6381V41.3619L38.4375 37.6119Z" fill="#B4B7C9"/>
<path d="M30.9375 25.8125H29.0625V29.5625H25.3125V31.4375H29.0625V35.1875H30.9375V31.4375H34.6875V29.5625H30.9375V25.8125Z" fill="#B4B7C9"/>
<path d="M58.125 1.4375H48.75V3.3125H57.1875V10.8125H59.0625V2.375C59.0625 1.85656 58.6434 1.4375 58.125 1.4375Z" fill="#B4B7C9"/>
<path d="M2.8125 3.3125H11.25V1.4375H1.875C1.35656 1.4375 0.9375 1.85656 0.9375 2.375V10.8125H2.8125V3.3125Z" fill="#B4B7C9"/>
<path d="M57.1875 57.6875H48.75V59.5625H58.125C58.6434 59.5625 59.0625 59.1434 59.0625 58.625V50.1875H57.1875V57.6875Z" fill="#B4B7C9"/>
<path d="M2.8125 50.1875H0.9375V58.625C0.9375 59.1434 1.35656 59.5625 1.875 59.5625H11.25V57.6875H2.8125V50.1875Z" fill="#B4B7C9"/>
</g>
</g>
</g>
</g>
<defs>
<clipPath id="clip0_158_10">
<rect width="60" height="60" fill="white" transform="translate(0 0.5)"/>
</clipPath>
<clipPath id="clip1_158_10">
<rect width="60" height="60" fill="white" transform="translate(0 0.5)"/>
</clipPath>
<clipPath id="clip2_158_10">
<rect width="60" height="60" fill="white" transform="translate(0 0.5)"/>
</clipPath>
</defs>
</svg>
