<svg width="20" height="17" viewBox="0 0 20 17" fill="none" xmlns="http://www.w3.org/2000/svg">
<path d="M17.8686 0.915804L1.60496 7.16776C1.06069 7.39692 0.77781 7.64399 0.756326 7.90897C0.734841 8.17394 0.953266 8.37804 1.4116 8.52127L5.57957 9.81033L15.2261 3.73026C15.4552 3.58703 15.645 3.54048 15.7954 3.59061C15.9458 3.64074 15.935 3.74458 15.7632 3.90213L7.94285 10.9705L7.66355 15.2674C7.86407 15.2674 8.02521 15.2244 8.14695 15.1385C8.2687 15.0525 8.38686 14.9523 8.50144 14.8377L10.521 12.8611L14.7319 15.9764C15.133 16.1912 15.466 16.2413 15.7309 16.1267C15.9959 16.0122 16.1785 15.7257 16.2788 15.2674L19.0288 2.22635C19.172 1.65343 19.1076 1.24881 18.8354 1.01248C18.5633 0.776155 18.241 0.743929 17.8686 0.915804Z" fill="#BAC5DA"/>
</svg>
