<svg width="19" height="15" viewBox="0 0 19 15" fill="none" xmlns="http://www.w3.org/2000/svg">
<path d="M16.9326 3.82617C16.9326 3.91211 16.9326 3.99447 16.9326 4.07324C16.9326 4.15202 16.9326 4.23438 16.9326 4.32031C16.9326 5.53776 16.7035 6.76953 16.2451 8.01562C15.7868 9.26172 15.1136 10.3896 14.2256 11.3994C13.3376 12.4092 12.2419 13.2292 10.9385 13.8594C9.63509 14.5039 8.13119 14.8262 6.42676 14.8262C5.38119 14.8262 4.37858 14.6794 3.41895 14.3857C2.45931 14.0921 1.57129 13.6803 0.754883 13.1504C0.912435 13.179 1.06283 13.1934 1.20605 13.1934C1.34928 13.1934 1.49967 13.1934 1.65723 13.1934C1.65723 13.1934 1.66439 13.1934 1.67871 13.1934C2.53809 13.1934 3.35807 13.0537 4.13867 12.7744C4.91927 12.4951 5.62467 12.1048 6.25488 11.6035L6.2334 11.625C5.43131 11.6107 4.71875 11.3672 4.0957 10.8945C3.47266 10.4219 3.03939 9.82031 2.7959 9.08984V9.06836C2.89616 9.08268 3.00716 9.09701 3.12891 9.11133C3.25065 9.12565 3.36882 9.13281 3.4834 9.13281C3.65527 9.13281 3.81999 9.11849 3.97754 9.08984C4.13509 9.0612 4.29264 9.03255 4.4502 9.00391C3.60514 8.81771 2.89974 8.38802 2.33398 7.71484C1.76823 7.04167 1.48535 6.26107 1.48535 5.37305V5.33008C1.74316 5.45898 2.01172 5.56641 2.29102 5.65234C2.57031 5.73828 2.86035 5.78841 3.16113 5.80273C2.65983 5.45898 2.25879 5.01855 1.95801 4.48145C1.65723 3.94434 1.50684 3.36068 1.50684 2.73047C1.50684 2.38672 1.55339 2.05729 1.64648 1.74219C1.73958 1.42708 1.86491 1.13346 2.02246 0.861328C2.48079 1.41992 2.98926 1.92839 3.54785 2.38672C4.10645 2.84505 4.70801 3.23893 5.35254 3.56836C5.99707 3.89779 6.67741 4.16276 7.39355 4.36328C8.1097 4.5638 8.84733 4.68555 9.60645 4.72852H9.62793C9.59928 4.58529 9.5778 4.44206 9.56348 4.29883C9.54915 4.1556 9.54199 4.01237 9.54199 3.86914C9.54199 2.85221 9.90365 1.9821 10.627 1.25879C11.3503 0.535481 12.2204 0.173828 13.2373 0.173828C13.7673 0.173828 14.265 0.28125 14.7305 0.496094C15.196 0.710938 15.5934 0.997396 15.9229 1.35547C16.3669 1.26953 16.7858 1.14779 17.1797 0.990234C17.5736 0.832683 17.9495 0.646484 18.3076 0.431641L18.2646 0.453125C18.1214 0.897136 17.9137 1.29102 17.6416 1.63477C17.3695 1.97852 17.0472 2.26497 16.6748 2.49414H16.6533C17.04 2.45117 17.416 2.37956 17.7812 2.2793C18.1465 2.17904 18.4938 2.05013 18.8232 1.89258L18.7803 1.91406C18.5225 2.28646 18.2396 2.63021 17.9316 2.94531C17.6237 3.26042 17.2979 3.54688 16.9541 3.80469L16.9326 3.82617Z" fill="#BAC5DA"/>
</svg>
