<svg width="18" height="19" viewBox="0 0 18 19" fill="none" xmlns="http://www.w3.org/2000/svg">
<path d="M15.4287 2.104H12.6787V0.256348H10.8311V2.104H7.17871V0.256348H5.33105V2.104H2.58105C2.07975 2.104 1.65007 2.28304 1.29199 2.64111C0.933919 2.99919 0.754883 3.42887 0.754883 3.93018V16.7563C0.754883 17.272 0.933919 17.7088 1.29199 18.0669C1.65007 18.425 2.07975 18.604 2.58105 18.604H15.4287C15.93 18.604 16.3597 18.425 16.7178 18.0669C17.0758 17.7088 17.2549 17.272 17.2549 16.7563V3.93018C17.2549 3.42887 17.0758 2.99919 16.7178 2.64111C16.3597 2.28304 15.93 2.104 15.4287 2.104ZM2.58105 16.7563V4.854H15.4287V3.93018V16.7563H2.58105ZM4.42871 6.68018H13.5811V8.50635H4.42871V6.68018ZM4.42871 10.354H9.00488V12.1802H4.42871V10.354Z" fill="#BAC5DA"/>
</svg>
